<?xml version="1.0" encoding="UTF-8"?>
<svg id="Calque_2" xmlns="http://www.w3.org/2000/svg" version="1.1" viewBox="0 0 512 512">
  <!-- Generator: Adobe Illustrator 29.1.0, SVG Export Plug-In . SVG Version: 2.1.0 Build 142)  -->
  <defs>
    <style>
      .st0 {
        fill: #264de4;
      }

      .st1 {
        fill: #fff;
      }

      .st2 {
        fill: #ebebeb;
      }

      .st3 {
        fill: #2965f1;
      }
    </style>
  </defs>
  <polygon id="polygon2989" class="st0" points="482.1 -2 440.8 460.5 255.2 512 70.1 460.6 28.9 -2 482.1 -2"/>
  <polygon id="polygon2991" class="st3" points="405.5 431.1 440.8 35.8 255.5 35.8 255.5 472.7 405.5 431.1"/>
  <polygon id="polygon2993" class="st2" points="123.4 207.4 128.5 264.1 255.5 264.1 255.5 207.4 123.4 207.4"/>
  <polygon id="polygon2995" class="st2" points="255.5 92.6 255.3 92.6 113.2 92.6 118.4 149.3 255.5 149.3 255.5 92.6"/>
  <polygon id="polygon2997" class="st2" points="255.5 413.8 255.5 354.8 255.3 354.8 192.1 337.8 188 292.5 157.3 292.5 131.1 292.5 139 381.6 255.2 413.9 255.5 413.8"/>
  <polygon id="polygon3005" class="st1" points="325.2 264.1 318.6 337.7 255.3 354.8 255.3 413.8 371.6 381.6 372.5 372 385.8 222.6 387.2 207.4 397.4 92.6 255.3 92.6 255.3 149.3 335.3 149.3 330.1 207.4 255.3 207.4 255.3 264.1 325.2 264.1"/>
</svg>